<?xml version="1.0" standalone="no"?>
<!DOCTYPE svg PUBLIC "-//W3C//DTD SVG 20010904//EN"
 "http://www.w3.org/TR/2001/REC-SVG-20010904/DTD/svg10.dtd">
<svg version="1.0" xmlns="http://www.w3.org/2000/svg"
 width="500.000000pt" height="500.000000pt" viewBox="0 0 500.000000 500.000000"
 preserveAspectRatio="xMidYMid meet">

<g transform="translate(0.000000,500.000000) scale(0.100000,-0.100000)"
fill="#000000" stroke="none">
<path d="M2325 4780 c-801 -67 -1509 -542 -1866 -1251 -184 -366 -265 -769
-238 -1177 53 -797 512 -1503 1219 -1875 313 -165 624 -244 1000 -254 359 -10
648 44 963 179 671 288 1165 884 1327 1599 51 225 65 560 35 796 -99 757 -576
1421 -1260 1753 -307 149 -600 222 -940 234 -77 2 -185 1 -240 -4z m85 -635
l0 -455 -64 0 c-138 0 -375 24 -558 57 -65 11 -88 19 -88 30 0 24 87 220 140
314 138 245 302 413 475 484 105 43 95 89 95 -430z m265 434 c221 -83 440
-349 599 -726 34 -81 33 -91 -6 -97 -18 -3 -73 -13 -123 -21 -120 -20 -390
-45 -482 -45 l-73 0 0 455 c0 393 2 455 15 455 8 0 39 -9 70 -21z m-779 -101
c-115 -131 -282 -421 -348 -605 -16 -44 -28 -63 -40 -63 -51 0 -447 140 -485
172 -18 15 -8 27 92 113 192 164 463 321 690 399 140 48 147 47 91 -16z m1293
17 c255 -86 544 -257 735 -435 55 -52 65 -66 54 -76 -36 -35 -461 -183 -491
-171 -7 3 -26 38 -42 78 -72 188 -213 434 -316 554 -78 91 -74 85 -58 85 9 0
61 -16 118 -35z m-2221 -679 c77 -38 276 -113 405 -152 96 -29 96 -29 72 -108
-56 -186 -107 -526 -123 -823 -5 -78 -10 -144 -13 -145 -2 -2 -210 -2 -462 0
l-459 3 7 72 c36 411 174 778 412 1100 36 48 71 87 79 87 8 0 45 -15 82 -34z
m3224 -53 c178 -241 307 -523 369 -803 22 -102 48 -284 49 -338 l0 -32 -462 2
-463 3 -7 140 c-13 265 -51 530 -110 768 -17 70 -29 129 -26 132 2 3 58 21
123 41 125 38 267 92 375 143 36 17 70 31 76 31 6 0 40 -39 76 -87z m-2210
-219 c79 -9 206 -19 283 -23 l140 -6 3 -462 2 -463 -461 0 -462 0 7 141 c11
241 55 529 116 770 12 46 23 86 25 90 2 3 49 -2 105 -12 55 -10 164 -26 242
-35z m1421 -104 c20 -80 45 -201 56 -270 22 -133 51 -427 51 -522 l0 -58 -232
-1 c-128 -1 -251 -1 -273 -2 -22 0 -124 1 -228 2 l-187 1 2 463 3 462 75 2
c135 5 422 34 555 57 72 12 133 19 137 16 3 -3 22 -70 41 -150z m-2091 -1052
c3 -13 6 -56 7 -96 3 -184 57 -568 111 -787 16 -66 30 -125 30 -132 0 -7 -19
-17 -42 -24 -109 -29 -291 -93 -409 -145 l-131 -57 -24 29 c-13 16 -60 82
-104 147 -203 299 -322 636 -355 1009 l-7 78 354 2 c194 2 400 2 458 1 100 -2
105 -3 112 -25z m1096 -434 c2 -360 0 -459 -10 -466 -7 -4 -56 -8 -108 -8
-136 -1 -510 -43 -609 -70 -19 -5 -38 -7 -42 -5 -13 9 -78 298 -103 462 -23
149 -46 395 -46 497 l0 46 258 2 c141 2 347 2 457 1 l200 -2 3 -457z m1098
334 c-10 -187 -25 -329 -51 -484 -29 -169 -87 -400 -101 -397 -146 26 -375 55
-499 63 -88 6 -184 14 -212 16 l-53 5 0 460 0 459 462 0 461 0 -7 -122z m1104
107 c0 -9 -5 -59 -10 -113 -41 -385 -187 -751 -423 -1064 -28 -38 -56 -68 -62
-68 -6 0 -43 15 -82 34 -88 42 -254 105 -390 146 -62 19 -103 37 -103 45 0 7
13 66 30 131 59 236 110 610 110 810 l0 94 465 0 c412 0 465 -2 465 -15z
m-2200 -1540 c0 -393 -2 -455 -15 -455 -32 0 -130 45 -199 91 -126 84 -250
229 -354 414 -52 93 -142 295 -142 319 0 17 11 20 185 46 180 26 295 37 423
39 l102 1 0 -455z m600 430 c133 -17 280 -42 288 -50 18 -17 -123 -310 -215
-449 -135 -203 -313 -351 -460 -381 l-33 -7 0 458 0 457 148 -6 c81 -4 203
-13 272 -22z m-1451 -183 c78 -200 207 -423 325 -562 33 -38 50 -66 43 -68
-24 -5 -222 69 -352 133 -71 34 -184 99 -250 143 -112 75 -304 233 -312 258
-5 14 183 93 332 139 66 20 125 38 130 40 41 14 50 5 84 -83z m2084 48 c128
-41 312 -114 335 -133 16 -13 -10 -41 -120 -133 -185 -155 -452 -306 -669
-379 -59 -19 -112 -35 -118 -35 -6 0 20 39 60 88 39 48 96 128 127 177 60 97
169 317 198 403 15 41 23 52 40 52 12 0 78 -18 147 -40z"/>
</g>
</svg>
